<svg width="803" height="1316" viewBox="0 0 803 1316" fill="none" xmlns="http://www.w3.org/2000/svg">
  <path d="M359.8 1314.56C357.8 1313.86 351.7 1310.76 346.3 1307.66C336.9 1302.36 324 1296.66 315.5 1293.96C304.3 1290.46 265.9 1268.66 259.6 1262.26C257.1 1259.76 254.1 1255.66 252.8 1253.06C250.7 1248.86 250.5 1247.26 250.7 1235.56C250.9 1224.86 250.7 1221.96 249.1 1218.56C246.7 1213.06 238.3 1203.16 217.2 1180.96C195.9 1158.46 194.8 1156.56 194.7 1141.66C194.6 1120.26 199.3 1115.06 224 1109.56C247.8 1104.26 263.9 1101.86 284.5 1100.46C307.4 1098.96 320.2 1096.96 325.9 1094.26C332 1091.26 332.7 1088.46 336 1055.56C337.7 1039.36 340.3 1015.56 342 1002.76C357.2 885.362 359.9 856.162 358.7 822.462C355.9 742.062 354.6 718.762 351.5 691.462C346.2 645.562 343.7 629.662 336.4 594.462C334.4 585.162 329.5 561.262 325.5 541.462C311.8 474.562 306.3 452.062 283.8 370.462C270.9 323.562 266.7 311.962 262.4 311.962C258.6 311.962 254.6 317.962 244 339.262C234.5 358.562 202.1 432.162 196.9 446.462C193.5 455.862 195.2 463.662 203.1 474.462C209.3 483.062 211.9 487.962 215.8 499.062C218.6 506.962 240.5 600.062 243.6 616.962C246.4 632.662 244.1 669.162 239.9 674.262C237.2 677.562 235.4 675.762 228.1 662.862C224.7 656.562 216.5 642.962 210.1 632.462C189.3 598.862 181.5 583.262 176.8 566.062C175 559.662 174.6 555.562 174.6 540.462C174.5 523.062 174.4 522.462 172.4 522.162C171.3 521.962 169.6 522.662 168.7 523.662C167.8 524.662 163.4 537.862 159 552.962C145.1 600.162 138.6 628.862 137.4 647.662C136.5 662.062 137.2 663.862 145.2 668.162C152.3 671.962 155.3 675.462 165.5 691.762C188.3 728.462 194.7 746.862 197.1 781.462C198.5 803.062 198.5 805.162 196.5 806.562C194.5 808.062 194.6 808.162 167.9 799.362C155.4 795.262 144.1 791.962 142.6 791.962C139.5 791.962 136.8 794.462 134.1 799.662C131.3 805.362 128.6 807.362 125 806.662C119.4 805.462 99.8 797.062 89.6 791.462C76.5 784.162 49.6 766.062 44.7 761.362C40.1 756.862 37.7 752.362 36 744.962C34.2 737.062 32.8 734.862 24 725.362C12 712.462 0 693.262 0 687.062C0 682.162 4.7 674.362 9.9 670.562C12.4 668.662 18.2 665.362 22.6 663.162C27.1 660.862 33 657.162 35.6 654.862C38.3 652.562 43 649.462 46 648.062C51.1 645.662 52.6 645.462 65 645.462C72.4 645.462 84.4 646.062 91.6 646.862C109.1 648.662 123.1 648.162 125.9 645.562C129 642.762 130.7 636.062 134.1 612.462C137.1 591.962 140.5 576.762 147.6 552.462C155.7 524.762 164.3 498.162 167.2 492.062C168.8 488.462 170.2 484.062 170.3 482.262C170.4 478.662 167.7 474.962 164.8 474.962C161.6 474.962 139.1 482.862 131.8 486.562C128 488.462 119.4 493.562 112.7 497.862C92.4 510.862 83.1 514.862 56.9 521.962C40.3 526.462 29.3 530.562 21.4 535.062C16.1 538.062 13.5 538.562 11.1 537.062C8.8 535.562 10.5 531.962 17.4 523.062C21 518.562 25.4 511.862 27.1 508.162C30 501.962 34.4 495.962 36.1 495.962C36.5 495.962 35.3 498.962 33.4 502.762C29.8 509.862 29.4 511.962 31 515.062C32.6 517.862 35.5 517.462 51.9 512.362C59.9 509.862 69.4 506.862 73 505.762C83 502.762 96.2 496.062 111 486.562C125.5 477.162 146.4 466.462 157 462.962C165.1 460.262 168 458.462 168 455.962C168 454.162 167.5 454.062 163.2 454.662C150.5 456.262 137.2 460.762 125.6 467.462C117.8 471.862 117.8 471.862 118.4 468.762C119.4 463.762 121.5 461.362 129.1 456.362C136.5 451.462 138.7 448.162 137 444.862C135.7 442.562 135.4 442.562 115.9 444.462C101.7 445.862 88.5 448.562 83.8 451.062C80 453.062 83.8 448.162 88.8 444.462C95.6 439.562 104 437.162 119.3 435.762C131 434.762 134.3 434.762 145.1 436.262C166.7 439.262 179.8 440.062 183.5 438.562C187.4 436.862 185.8 440.162 209.8 384.962C232.6 332.562 238 320.762 247.7 302.262C257 284.462 257.7 280.862 254.3 268.962C253 264.262 248.3 249.862 243.9 236.962C239.5 224.062 233 203.562 229.4 191.462C217.7 152.262 208.9 128.262 191 87.362C179 60.062 173.6 46.962 168.8 33.462C166.7 27.462 163.1 19.162 160.8 15.062C156.8 7.76196 156.8 7.56196 158.4 4.36196C159.9 1.06196 163 -0.538037 166.7 0.161963C169.1 0.561963 171.9 6.56196 177.9 24.162C180.6 32.062 188.4 52.062 195.3 68.662C211.2 106.862 219.8 130.162 235 176.462C241.6 196.862 251.3 225.662 256.5 240.462C262.9 258.762 268.3 276.962 273.5 296.962C282.3 331.762 296.9 385.162 300.6 396.462C303.5 405.362 306.9 412.462 311 418.562C312.6 420.762 315.9 428.162 318.5 435.062C327.2 457.962 343.2 489.262 362.8 521.962C377.6 546.762 387.6 561.562 404.8 584.662C423.7 610.062 429.7 618.462 436.8 630.362C442.8 640.362 449.4 646.862 471.7 664.962C483.5 674.662 488 676.962 494.6 676.962C506.1 676.962 509.3 674.762 536.9 648.262C558.3 627.762 563.5 623.762 574.7 620.062C589.5 615.062 621.5 611.462 637.7 612.962C650.8 614.262 651.8 614.462 655.3 617.762C658.4 620.762 658.8 624.762 656.3 627.762C655.3 628.862 643.7 639.162 630.5 650.762C617.3 662.262 602.1 675.662 596.7 680.362C577.1 697.662 563 706.362 549.4 709.562C534.6 713.062 535 712.862 535 715.462C535 718.962 539.3 723.362 546.8 727.562C550.5 729.662 562.7 737.662 573.9 745.362C585.1 753.062 595.9 759.862 597.9 760.562C603.4 762.562 610.9 762.162 621.5 759.462C631 756.962 631.9 756.962 678.7 756.462C722.1 755.962 727.8 756.162 744.4 757.962C768.7 760.762 781 763.362 789.5 767.562C793.4 769.362 797.2 771.462 798 772.162C800.5 774.162 803 778.262 803 780.162C803 783.462 788.6 797.262 774.5 807.362C768.6 811.662 763 817.062 761.4 820.162C759.8 823.262 759.6 829.962 760.9 834.562C762.2 839.262 760.2 842.162 748.4 852.962C742.7 858.162 732.8 868.362 726.5 875.462C715.5 887.962 709.9 893.462 696 905.062C683.3 915.762 682.7 915.862 676.3 909.362C673.8 906.862 670.7 904.362 669.3 903.862C661.5 900.962 626.8 906.862 609.7 914.162C600.4 918.162 596.5 917.462 593.5 911.462C591.7 907.762 591.6 905.362 591.5 881.462C591.5 851.962 592.3 844.962 599.5 810.162C604.2 787.462 604.3 785.162 600.5 778.462C597.9 773.862 599 774.762 572.5 756.462C495.1 702.962 482.5 692.562 447.7 652.762C422.1 623.462 411.7 610.262 390.7 579.662C359.3 534.062 349.4 518.462 336.1 493.862C329.3 481.262 325.9 478.062 323.3 481.562C322.6 482.562 322 484.162 322 485.062C322 486.062 324.4 497.362 327.4 510.162C330.4 522.962 334 538.962 335.4 545.562C338.2 559.162 353.7 645.362 356.9 665.462C364.2 711.662 367.2 759.562 366.9 823.962C366.3 911.462 365.7 902.462 372.7 902.462C376.1 902.462 379.3 902.962 379.8 903.462C380.4 904.062 382.2 907.862 383.9 912.062C390.3 927.562 400.3 940.062 417.9 954.662C444 976.362 456.9 991.762 473.9 1022.16C487.5 1046.46 493.9 1067.66 490 1075.06C488.3 1078.06 486.4 1077.36 481.3 1071.76C458.6 1046.86 444.4 1034.16 419 1016.16C398 1001.26 391.4 995.562 385.1 987.262C380 980.462 376 971.762 376 967.662C376.1 965.562 376.2 965.662 378.8 968.562C380.3 970.362 383.3 974.262 385.5 977.462C391.2 985.662 404.9 998.462 416.5 1006.36C431.1 1016.46 436.1 1020.36 448.4 1031.36C464.7 1045.86 475.6 1053.86 478.1 1053.26C481.3 1052.36 480.1 1048.66 471.2 1032.06C461.2 1013.26 449.9 996.162 441.9 987.862C436.2 982.062 434.8 981.162 429.8 980.062C421.9 978.362 414.3 972.462 402.1 958.562C390.1 944.962 383.2 938.562 376.8 935.362C372 932.962 372 932.962 370.9 935.662C370.3 937.262 369.9 940.762 370.1 943.462C370.4 951.162 370.3 951.262 367.8 949.562C364.5 947.262 362.1 947.562 361 950.462C359.5 954.362 355.2 976.662 353.1 991.862C347.3 1031.86 343 1089.16 345.3 1096.46C346.1 1099.26 349.7 1102.86 361.9 1113.36C385.8 1133.76 398.1 1143.46 415.6 1155.76C436.4 1170.36 445.9 1178.06 457.3 1189.26C479.1 1211.06 489.2 1231.56 482.4 1240.66C477.5 1247.16 477.6 1247.16 447.3 1248.56C420.5 1249.86 407.5 1251.56 404.4 1254.06C402.4 1255.76 402.7 1261.46 405.5 1274.66C408.5 1288.86 408.6 1293.86 406 1298.86C403.3 1304.16 395.9 1310.46 389.1 1313.06C382 1315.86 365.5 1316.76 359.8 1314.56ZM387.1 1300.56C390.7 1299.06 395 1296.56 396.5 1294.96C400.5 1290.86 400.2 1284.76 395.1 1268.46C380.7 1221.66 367.1 1189.26 347.7 1155.46C342.1 1145.56 341.1 1144.46 338.4 1144.16C336.5 1143.96 334.8 1144.46 333.8 1145.66C331.9 1147.76 325.8 1163.86 323.6 1172.46C321.5 1180.86 318 1204.86 317.1 1217.16C316.4 1227.46 316.4 1227.46 315.6 1219.46C314.3 1207.46 315.5 1190.56 319.1 1170.46C322.4 1152.06 324 1130.56 322.2 1128.76C321.6 1128.16 320.5 1128.16 319.2 1128.86C317 1130.06 294.1 1161.86 284.6 1176.86C274.4 1193.16 260.4 1224.76 259.3 1234.06C257.3 1250.86 271.7 1262.96 323.1 1287.56C354.8 1302.76 358.7 1304.06 371 1303.66C378.5 1303.36 381.9 1302.76 387.1 1300.56ZM440.5 1235.36C469.4 1233.66 473.5 1232.76 474.6 1228.36C474.9 1227.06 474.9 1224.76 474.5 1223.26C471.9 1212.66 441.3 1183.66 410.9 1162.96C402.5 1157.16 391.3 1149.16 386 1145.06C369 1131.66 367.9 1130.96 365.4 1130.96C359.3 1130.96 364.5 1141.56 377.7 1155.96C388.5 1167.76 390 1169.86 390 1173.06C390 1177.76 387.5 1176.66 378.7 1167.66C359.7 1148.46 357.1 1152.06 370.4 1179.26C375.1 1188.86 381.8 1203.66 385.4 1212.26C392.9 1230.26 394.3 1233.16 396.4 1234.96C398.8 1236.86 403.9 1237.86 409 1237.36C411.5 1237.16 425.7 1236.26 440.5 1235.36ZM259.2 1205.26C260 1204.26 264.4 1196.46 268.9 1187.96C273.4 1179.46 283.2 1163.36 290.6 1152.16C298 1141.06 304 1131.06 304 1130.06C304 1129.06 303.3 1127.66 302.5 1126.96C300.7 1125.46 298.8 1125.66 269.8 1130.26C257.5 1132.26 249.3 1133.16 249.7 1132.56C251.8 1128.86 255.2 1126.76 262.9 1124.36C274 1120.96 283.6 1116.16 282.2 1114.76C280.1 1112.66 270.5 1113.86 236.7 1120.56C215.1 1124.86 208 1128.16 204 1135.96C201.2 1141.36 201.4 1147.86 204.5 1154.26C207.5 1160.56 214.1 1168.16 235.6 1190.26C249.2 1204.16 252.5 1206.96 254.8 1206.96C256.4 1206.96 258.4 1206.16 259.2 1205.26ZM630.6 902.462C647.7 898.262 657 895.562 659.9 894.062C663.5 892.062 662.7 887.262 657.1 878.762C642.6 856.462 635.7 842.362 631.4 826.362C627.5 811.562 625.5 808.562 621.1 810.862C619.7 811.662 618.2 814.962 616.1 821.762C612.4 833.662 612.2 835.262 611.1 851.262C610.3 863.762 610.1 864.262 607.2 867.262C605.5 869.062 603.6 871.762 603.1 873.262C600.7 879.562 602.5 900.562 605.7 904.262C608.1 906.862 614.8 906.462 630.6 902.462ZM691.6 894.762C700.3 888.262 747 841.962 747 839.862C747 836.362 745.5 834.762 733.6 825.262C707.3 804.362 684.5 792.762 666.7 791.262C659.7 790.662 659.7 790.662 660.4 793.362C660.8 794.962 663.3 798.862 666 802.062C670.4 807.362 672.2 810.962 670.5 810.962C668.8 810.962 664 807.562 660.5 803.962C658.3 801.662 653.7 797.562 650.4 794.862C643.2 789.162 638.3 788.262 635.6 792.162C633.4 795.362 633.5 796.862 637.6 809.362C649.1 845.062 659.4 865.962 675.9 887.462C684 898.062 686.1 898.962 691.6 894.762ZM750.5 815.662C759.8 808.462 775.2 794.562 780.4 788.762C784.4 784.362 786 781.862 786 779.762C786 771.762 773.3 768.962 753 772.362C729.5 776.262 703.7 779.962 694.3 780.562C687.8 780.962 683.6 781.762 682.9 782.562C680.7 785.262 682.9 787.662 690.3 790.462C704.3 795.962 718.5 803.762 730.3 812.762C741.2 820.962 743.3 821.362 750.5 815.662ZM188.1 796.062C190.4 794.162 190.5 793.662 190.3 781.262C190.1 767.262 188.7 758.762 183.9 744.562C180.3 733.462 169.5 711.662 163.7 703.462C160.1 698.462 158.9 697.462 156.5 697.462C153.5 697.462 153.5 697.462 153.6 709.462C153.8 719.362 154.6 725.462 158.3 743.962C160.8 756.362 163.1 767.362 163.4 768.462C163.8 769.562 163.1 768.562 162 766.362C160.9 764.062 158.4 756.262 156.5 749.062C153 735.762 149.4 725.962 148 725.962C147.6 725.962 146.5 726.862 145.5 727.962C143.6 730.062 141.4 748.062 140.8 766.762C140.4 778.862 141.1 779.862 156.6 786.862C172.3 793.962 182.1 797.862 184.1 797.962C185 797.962 186.8 797.062 188.1 796.062ZM125.8 791.262C128.9 785.362 133.2 759.362 135.5 732.462C138.4 699.162 138 692.962 133 692.962C130.4 692.962 128.4 695.762 125 704.462C123.3 708.862 121 713.362 119.8 714.462C117.8 716.462 117.8 716.462 118.5 711.962C120.1 701.262 122.3 691.962 124.7 685.262C127.1 678.362 127.2 677.862 125.6 675.462C123.4 672.162 121.5 671.462 118.5 672.762C113.6 674.962 71.9 709.162 67.9 714.162C56.6 728.462 52.9 736.462 55.3 742.162C56.7 745.362 58.8 747.062 69.7 753.862C76.3 757.962 79.6 761.862 81.1 767.262C81.7 769.562 82.5 772.362 83 773.462C84 776.062 104.5 787.762 113 790.662C121.1 793.362 124.6 793.562 125.8 791.262ZM718.8 768.862C726.6 767.562 733 766.262 733 765.962C733 764.662 716.4 762.962 704 762.962C691.6 762.962 682.4 764.362 672.7 767.562C663.6 770.562 670 771.962 691 771.462C698.5 771.262 710.9 770.062 718.8 768.862ZM43.5 725.362C44.4 724.962 47.9 721.062 51.3 716.562C59.1 706.262 70.6 694.262 78.8 687.762C85.5 682.362 86.6 679.362 82.4 677.562C80.5 676.662 80.8 676.262 85.9 672.162C95.1 664.862 96.5 662.362 93.8 658.662C92 656.362 79.4 653.862 69 653.762C59.2 653.662 51.4 655.562 44.1 659.862C32.7 666.662 11.9 681.162 10.4 683.462C8.9 685.862 8.9 686.362 10.5 690.462C13.2 697.662 21.7 709.862 29.8 718.262C37.2 725.862 39.3 726.962 43.5 725.362ZM555.4 695.162C569.4 688.462 576.6 683.162 593 667.562C601.5 659.362 612.6 649.362 617.5 645.262C634.2 631.462 637 628.862 637 627.062C637 623.462 635 622.962 619.9 622.962C595.7 622.962 580 626.862 565.2 636.662C561.3 639.362 551.6 647.862 543.6 655.762C531 668.162 529.2 670.362 529.9 672.262C531.3 676.162 534.6 675.462 545.8 668.762C558.1 661.562 565.7 655.762 571.7 649.062C575.2 645.162 576.1 644.662 577.7 645.562C580.1 647.062 579.6 649.162 575.2 656.462C569.8 665.462 559.9 674.462 545.9 683.162C528.6 693.962 529.7 692.962 530.9 696.162C532.1 699.362 533.8 699.862 541.1 699.562C545.3 699.462 548.9 698.262 555.4 695.162ZM236.3 648.162C239.1 645.062 240.3 636.362 239.6 624.662C238.8 610.462 237.7 605.062 227.7 566.362C223 548.262 217.5 526.262 215.4 517.562C210.7 498.062 205.1 485.662 200.8 485.162C196.5 484.662 195 488.062 194.3 500.162C194 505.862 194.3 512.462 194.8 514.862C195.8 519.162 195.8 519.162 194 517.362C193 516.362 191.5 512.862 190.6 509.762C189.7 506.562 188.6 503.962 188.1 503.962C183.9 503.962 179.8 520.962 179.8 538.462C179.7 548.062 180.2 552.562 182.3 561.162C187.7 583.262 197.4 604.662 211.6 625.662C219.6 637.562 227.2 647.562 229.5 649.162C231.3 650.462 234.7 649.962 236.3 648.162Z" fill="#DEB8A6"/>
</svg>
