<svg width="1086" height="1562" viewBox="0 0 1086 1562" fill="none" xmlns="http://www.w3.org/2000/svg">
  <path d="M847.514 1559.6C837.814 1554.7 833.914 1548.9 828.114 1530.9C824.014 1518.1 820.914 1502.6 820.914 1494.8C820.914 1486.9 819.614 1482 816.414 1478.6C812.914 1474.8 808.514 1475.2 799.114 1480C787.614 1486 775.514 1488.2 766.414 1485.9C760.514 1484.4 752.514 1476.5 748.814 1468.4C744.614 1459.2 743.714 1451.8 743.514 1426C743.414 1403.7 743.514 1402.2 745.714 1396.5C750.814 1383.5 759.414 1368.5 774.314 1347C789.114 1325.5 800.914 1312.9 818.214 1300.1C844.114 1281 857.814 1277 878.814 1282.4C895.014 1286.6 896.914 1286 899.014 1276.6C900.614 1269.3 899.614 1243 897.014 1223.5C895.914 1215.3 893.914 1197.9 892.414 1185C889.614 1159.7 883.614 1126.9 876.414 1096.5C869.414 1067.2 858.214 1024.9 854.714 1015.2C850.714 1003.9 789.514 879 775.114 853C773.814 850.5 771.114 845.6 769.114 842C767.214 838.4 762.414 830.1 758.614 823.5C741.314 794 739.414 791.4 735.614 792.6C730.414 794.2 729.514 796.5 726.414 817C723.714 835 723.014 837.9 717.514 854.7C714.514 863.9 711.614 873.3 711.114 875.5C710.514 877.7 706.914 892.1 702.914 907.5C699.014 922.9 695.414 936.9 695.014 938.5C694.514 940.2 692.114 946.7 689.614 953.1C686.714 960.1 684.914 966.3 684.914 968.7C684.914 970.8 685.814 979.1 686.914 987.1C688.014 995 691.014 1017.7 693.614 1037.5C698.214 1072.8 698.214 1074 698.314 1102.5C698.414 1121 697.914 1135.5 697.114 1142.5C693.314 1173.7 687.614 1210.6 686.214 1213.4C683.814 1218.3 680.814 1221 677.914 1221C673.714 1221 672.214 1218.3 670.914 1209C669.814 1200.8 668.514 1196.4 656.614 1161.5C649.414 1140.6 647.314 1129.8 644.314 1099.1C641.314 1068.5 640.014 1065.2 633.514 1071.6C629.214 1076 619.914 1087.7 619.914 1088.8C619.914 1089.4 619.514 1090 619.014 1090.2C618.514 1090.4 615.614 1094.8 612.414 1100C601.114 1118.7 592.314 1129.7 574.914 1146.8C567.914 1153.6 564.914 1157.2 564.914 1158.8C564.914 1160.1 566.214 1164.2 567.914 1167.9C569.514 1171.6 571.314 1176.6 571.814 1179.1C574.314 1190 576.514 1276.9 575.014 1303.2C574.214 1318.5 574.114 1319 570.314 1326.7C565.214 1337 552.514 1350 542.714 1354.9C533.014 1359.7 523.914 1360.3 516.614 1356.6C508.514 1352.5 504.814 1349 497.514 1338.2C489.314 1326 486.314 1324.1 478.214 1325.8C475.314 1326.4 471.014 1328.2 468.614 1329.8C449.414 1343 437.514 1346.5 416.414 1344.9C407.314 1344.2 404.414 1343.6 399.414 1341.1C391.014 1337 385.714 1332.1 382.314 1325.3C379.714 1320 379.414 1318.6 379.414 1308.5C379.514 1295.2 380.414 1292.8 391.614 1277.8C403.114 1262.2 412.714 1251.5 435.314 1229C457.314 1207.1 458.214 1205.8 453.914 1201.2C452.514 1199.8 450.614 1199 448.514 1199C446.614 1199 441.614 1198.4 437.314 1197.6C432.914 1196.8 425.214 1195.6 420.114 1195C402.614 1192.8 390.414 1184.3 382.414 1168.6C379.214 1162.3 378.414 1159.5 378.114 1153.9C377.714 1147.6 378.014 1146.2 380.914 1140.4C385.314 1131.3 393.514 1123.2 402.914 1118.7C417.014 1111.8 425.914 1111.6 453.214 1117.5C489.014 1125.3 510.414 1131.8 530.114 1140.6C544.014 1146.8 545.414 1147.2 550.814 1145.8C554.614 1144.9 556.914 1143.2 564.414 1135.6C582.314 1117.6 602.514 1091.6 616.314 1068.6C627.214 1050.5 661.214 981.8 669.414 961.5C670.914 957.7 672.914 952.7 673.914 950.5C674.814 948.3 676.214 944.7 676.814 942.5C677.514 940.3 678.414 937.6 678.814 936.5C681.014 931.3 685.214 916.5 687.014 908C689.714 895.1 693.014 883.1 694.614 880C695.314 878.6 695.914 876.9 695.914 876.2C695.914 875.5 696.314 874.2 696.814 873.2C699.914 867.4 705.714 850.8 711.314 832C716.614 814 719.414 792.9 718.714 775.4C718.314 764.3 717.714 761.2 714.914 752.7C713.114 747.3 709.814 740.1 707.614 736.7C703.814 730.8 693.914 714 693.914 713.4C693.914 713.3 691.914 709.7 689.414 705.6C686.914 701.4 684.914 697.8 684.914 697.6C684.914 697.4 681.514 691.2 677.314 683.9C656.114 646.6 613.514 552.7 592.414 496.8C572.414 443.9 564.814 415.1 554.014 351.9C549.314 324.5 546.414 269.2 548.214 241.5C549.814 217.8 549.614 217 543.614 217C538.614 217 533.014 220.4 520.914 230.7C514.514 236.1 504.414 244.3 498.414 248.9C477.114 265.3 452.214 288.9 430.714 313C407.614 339 376.614 376 374.814 379.8C372.114 385.2 372.714 391.1 376.614 398.5C378.414 401.9 380.814 411.3 384.514 428.5C387.414 442.3 393.614 471.1 398.414 492.5C408.614 539 410.114 549.8 410.214 580.5L410.314 603.5L406.814 611C402.614 619.9 396.414 627 392.714 627C389.814 627 386.614 623.8 384.514 618.9C380.814 610 372.114 559.9 369.414 532.5C367.214 509.3 367.214 509 364.614 508.1C363.414 507.6 361.914 507.5 361.214 507.7C360.514 508 357.914 511.9 355.314 516.3C349.214 527 347.314 529 343.314 529C334.814 529 333.414 522.1 334.914 486.7C335.414 473.4 335.914 459.5 335.914 455.8C335.914 449.4 335.814 449 333.314 448.4C330.214 447.6 327.614 449.9 321.514 458.5C316.014 466.3 302.914 488.2 302.914 489.7C302.914 490.3 302.514 491 302.114 491.2C300.214 491.9 262.914 561.3 262.914 564.1C262.914 564.9 262.214 566.4 261.414 567.4C260.614 568.5 259.914 570.1 259.914 570.9C259.914 571.8 259.314 573.7 258.514 575.1C255.514 580.9 254.414 588.6 254.514 603.5C254.514 616.6 254.914 620.3 257.614 632.5C265.114 665.7 268.414 692.8 271.514 745C273.114 773.8 272.914 780.3 269.914 796.1C267.114 810.6 262.314 819 256.714 819C252.714 819 251.214 815.9 250.414 805.5C248.914 784.8 245.614 759.1 241.814 738.5C238.914 722.6 237.614 711.8 236.914 699.5C235.114 665.3 234.714 662 232.714 659.4C231.614 658.1 229.714 657 228.514 657C225.614 657 222.114 660.3 221.314 663.8C221.014 665.3 220.314 668.1 219.714 670C216.914 679.8 197.114 755.5 189.014 787.3C187.414 793.7 185.014 804.9 183.914 812.1C181.414 827.2 181.814 830.8 187.414 840C192.314 848.2 192.614 849.1 209.414 904.8C217.914 933.2 226.714 962.4 228.914 969.5C236.014 992.6 240.414 1013.2 244.814 1043.8C247.314 1060.7 247.414 1066.1 245.514 1069.9C240.814 1078.8 238.014 1075.9 233.414 1057.5C226.914 1031.8 219.614 1012.5 203.414 978C192.414 954.6 185.314 941.2 179.414 933.3C175.714 928.1 174.414 927 172.014 927C167.214 927 167.914 924.7 161.414 963C160.014 971 157.714 986 156.314 996.5C154.914 1006.9 153.214 1018.8 152.414 1023C145.914 1056.6 144.414 1070.1 145.414 1083.5C145.814 1089 146.214 1098.5 146.314 1104.5C146.414 1115 146.614 1115.9 150.314 1124C162.614 1151.1 164.214 1164.2 158.414 1189C155.114 1202.8 153.714 1208.6 152.814 1211.5C151.514 1216.1 138.714 1251.7 136.014 1258.4C133.914 1263.5 130.814 1275.2 128.414 1286.7C125.714 1299.2 122.814 1304 117.914 1304C113.814 1304 112.014 1302 110.914 1296C109.014 1284.7 105.814 1243.7 104.914 1217.1C103.814 1188.6 103.214 1185 99.3144 1185C98.5144 1185 93.4144 1189.6 88.1144 1195.2C72.2144 1211.8 28.6144 1249.1 16.8144 1256.1C9.11436 1260.7 5.21436 1261.1 1.91436 1257.5C0.0143627 1255.4 -0.285637 1254.4 0.214363 1250.6C0.814363 1246.3 6.61436 1227.9 9.41436 1221.5C10.1144 1219.9 12.0144 1215.4 13.4144 1211.5C16.7144 1203.1 24.6144 1187.3 30.6144 1177.1C38.8144 1163.3 47.2144 1152.5 59.8144 1140C73.8144 1126 84.9144 1118 106.114 1106.6C126.014 1095.9 127.414 1093.6 130.914 1065.3C132.014 1056.3 136.714 1024.8 141.414 995.2C146.114 965.6 149.914 940 149.914 938.4C149.914 934.6 148.314 933 144.614 933C140.814 933 135.214 938.9 114.114 965C77.4144 1010.3 71.1144 1018 60.3144 1030C45.7144 1046.3 40.0144 1051.6 33.6144 1054.5C26.8144 1057.7 23.9144 1057.7 20.6144 1054.2C16.5144 1049.9 16.8144 1045.3 22.9144 1024C24.1144 1019.9 25.4144 1015.6 25.9144 1014.5C33.5144 996.8 36.4144 990.4 36.9144 990C37.2144 989.7 39.9144 985.7 42.9144 981C46.8144 975 54.7144 966.1 69.9144 950.5C101.914 917.6 123.314 893.4 127.614 885C128.614 883.1 129.714 881.3 130.014 881C130.314 880.7 132.714 876.7 135.314 872C140.314 863.1 147.614 852.7 156.014 842.5C162.514 834.7 166.014 826.9 168.814 814.5C170.014 809 172.014 800.2 173.114 795C174.314 789.8 179.514 768.6 184.614 748C189.814 727.4 196.714 699.9 199.914 687C203.214 674.1 205.814 662.3 205.914 660.8C205.914 658.8 205.214 658 202.914 657.1C201.214 656.6 199.114 656.4 198.114 656.7C193.614 658.4 155.414 688.7 87.9144 744C69.5144 759.1 52.4144 772.5 50.0144 773.7C44.9144 776.3 38.7144 776.7 36.9144 774.5C35.4144 772.6 36.1144 765.6 38.3144 761.4C39.2144 759.8 42.1144 753.6 44.9144 747.7C52.5144 731.5 79.5144 696.3 100.414 675.5C133.814 642.1 174.214 612.6 215.714 591.6C227.814 585.4 236.614 577.9 240.414 570.4C241.514 568.3 242.714 566.3 243.014 566C243.314 565.7 247.614 557.4 252.614 547.5C264.814 523.4 268.314 516.6 269.014 516C270.114 515 279.914 497.2 279.914 496.2C279.914 495.6 280.314 495 280.714 494.8C281.214 494.7 284.214 490 287.414 484.5C290.614 479 296.514 469 300.614 462.3C304.614 455.6 307.914 449.7 307.914 449.2C307.914 448.6 308.314 448 308.714 447.8C309.114 447.7 313.014 442.1 317.314 435.5C327.214 420.4 352.014 385.6 361.714 373.2C370.614 361.8 410.014 315.1 421.814 302C442.614 278.8 472.314 250.1 494.914 231.3C499.614 227.5 514.014 216.3 526.914 206.5C557.214 183.6 562.914 179.1 589.414 158C627.814 127.4 642.414 116.9 663.714 104.6C671.014 100.4 691.314 87.4 708.714 75.7C743.814 52.2 762.114 40.8 789.914 25.2C808.914 14.6 814.914 10.6 814.914 8.9C814.914 7.9 816.014 6.3 819.614 2.4C821.514 0.3 822.714 0 828.414 0C836.714 0 839.914 2.5 839.914 8.9C839.914 12.2 839.314 13.3 836.214 15.9C834.214 17.6 831.414 19.5 830.014 20.2C820.014 25.2 793.914 40.6 762.814 59.7C670.514 116.6 633.414 140.9 597.914 167.9C569.214 189.7 561.214 203 557.514 235C552.814 276.3 555.614 328.7 564.514 368C574.214 410.5 587.214 458.1 596.814 486C607.214 516.7 622.214 550.7 627.714 556.3C631.814 560.5 634.514 561.4 647.414 562.9C659.314 564.3 670.114 567.5 691.614 576.1C734.314 593.1 763.814 609.5 803.014 638C809.414 642.7 818.814 649.4 823.814 652.9C836.514 661.8 887.414 702.6 893.914 709.2C899.514 714.8 902.814 720.8 902.914 725.2C902.914 728.2 898.914 732 895.614 732C893.214 732 885.814 729.9 884.414 728.9C883.814 728.5 881.514 727.6 879.414 727.1C877.214 726.5 871.414 724.9 866.414 723.5C861.514 722.1 854.514 720.5 850.914 719.9C847.314 719.4 843.114 718.5 841.414 718C834.514 715.9 804.714 711.6 760.914 706.5C746.514 704.8 741.214 703.7 736.414 701.5C734.814 700.8 732.114 699.8 730.514 699.4C728.914 699 724.014 696.7 719.514 694.2C715.114 691.7 708.314 687.9 704.514 685.8C693.514 679.7 689.914 680.9 691.814 690.1C693.414 697.7 696.114 703 702.714 712.3C705.914 716.8 709.914 722.8 711.614 725.5C714.714 730.5 769.214 824.2 780.614 844C787.714 856.4 795.514 871.8 815.214 912.2C823.214 928.5 834.914 951.1 841.414 962.5C859.914 995.1 865.514 1009.4 875.914 1050.5C884.714 1084.8 888.614 1093.4 902.914 1108.3C917.014 1123.1 930.814 1133.6 952.914 1146.5C960.314 1150.8 969.814 1156.8 973.914 1159.9C983.714 1167.2 1006.61 1189.5 1019.11 1204C1038.41 1226.2 1077.51 1280.5 1083.41 1293.1C1087.31 1301.5 1086.51 1309 1081.81 1309C1080.91 1309 1074.81 1306.6 1068.31 1303.6C1054.01 1297.2 1050.41 1296 1032.91 1291.9C1025.51 1290.1 1019.01 1288.4 1018.41 1288C1017.91 1287.6 1015.61 1286.7 1013.41 1286C1004.51 1283.3 989.814 1276.4 979.414 1270C962.214 1259.5 942.514 1241.6 930.014 1225.2C919.214 1210.9 913.914 1205 912.014 1205C907.114 1205 906.814 1209.3 909.914 1240C911.014 1251.3 912.214 1267 912.514 1275C913.214 1293.6 914.614 1298.6 920.614 1304.7C928.314 1312.6 929.514 1315.4 935.914 1338.9C943.614 1367.4 945.414 1375.5 954.514 1420.5C958.614 1440.9 963.714 1464.9 965.914 1473.9C969.014 1486.7 969.914 1492.2 969.914 1499.2C969.914 1508.9 968.214 1521.9 966.814 1523.4C966.314 1524 965.914 1525 965.914 1525.7C965.914 1529.2 954.514 1540.2 949.314 1541.8C939.114 1544.8 932.414 1542.8 917.514 1532.1C913.214 1529 909.414 1526.6 909.014 1526.6C908.714 1526.7 907.514 1526.4 906.314 1526C903.314 1524.8 901.414 1526.4 895.714 1534.8C881.114 1556.6 861.614 1566.6 847.514 1559.6ZM862.314 1543.8C871.014 1539.4 882.714 1524.6 886.014 1514C886.614 1512.1 887.514 1509.6 888.014 1508.5C889.614 1505 891.814 1492.5 893.014 1480.4C895.214 1457.7 889.514 1366.3 885.614 1362.4C885.414 1362.1 883.214 1364.1 880.914 1366.7C878.114 1369.9 873.614 1377.7 867.714 1389.8C862.914 1399.8 858.914 1408.5 858.914 1409C858.914 1409.6 858.514 1410 857.914 1410C856.214 1410 856.814 1400 858.914 1392.1C861.514 1382.4 861.514 1378 859.114 1378C856.514 1378 853.614 1381 851.514 1386.1C850.414 1388.5 848.114 1393.7 846.314 1397.5C844.514 1401.4 841.914 1408.6 840.514 1413.5C837.214 1424.9 830.314 1459.7 828.914 1471.4C826.114 1497.2 837.514 1539.5 848.914 1545.3C852.814 1547.2 856.214 1546.9 862.314 1543.8ZM946.314 1525.1C948.514 1523.7 950.714 1521 952.414 1517.5C954.714 1513 955.014 1510.9 955.014 1503.3C955.014 1491 952.314 1472.3 948.914 1460.5C944.114 1443.7 941.314 1431.7 934.914 1401.3C928.114 1368.7 921.914 1344.8 918.614 1338C915.514 1332 912.114 1330.3 907.414 1332.6C905.314 1333.6 903.614 1335.2 903.314 1336.7C902.514 1339.8 903.214 1351.9 905.314 1368.5C909.114 1400.6 911.614 1455.4 910.114 1475.1C908.314 1497.5 910.814 1508.5 920.114 1518.6C928.414 1527.6 938.214 1530.1 946.314 1525.1ZM784.214 1467.6C789.314 1465.7 798.714 1461.6 805.114 1458.6C818.014 1452.5 818.514 1451.9 821.014 1441C821.614 1438 823.014 1432.4 823.914 1428.5C824.914 1424.7 826.114 1419 826.714 1416C831.714 1391 834.314 1382.9 843.514 1365.2C853.214 1346.4 859.914 1336.9 870.914 1326.1C881.214 1316 882.514 1313.9 881.514 1308.6C879.714 1299.1 863.814 1295.7 848.714 1301.7C837.214 1306.2 807.614 1328.6 797.714 1340.3C783.714 1356.7 758.914 1393.6 758.914 1397.9C758.914 1398.5 758.514 1399.8 758.014 1400.8C753.014 1410.3 752.314 1434.5 756.414 1454C760.114 1471.4 766.114 1474.3 784.214 1467.6ZM534.814 1340.1C545.914 1334.4 554.414 1325 557.914 1314.2C561.314 1303.7 562.014 1292.1 561.314 1254.9C560.614 1218 560.314 1215 556.214 1215C552.714 1215 547.614 1219.6 540.414 1229.1C536.314 1234.6 532.914 1239.7 532.914 1240.5C532.914 1241.2 532.514 1242 532.114 1242.2C530.814 1242.6 514.614 1270.3 511.114 1278C505.914 1289.1 505.214 1291.2 502.314 1302.5C499.914 1312.2 499.714 1314.2 500.614 1319.6C501.814 1326.3 506.114 1335.9 509.314 1338.9C515.914 1345 524.214 1345.4 534.814 1340.1ZM438.614 1330.5C441.314 1329.7 445.114 1327.9 447.214 1326.6C454.814 1321.9 472.214 1306.3 478.214 1298.8C484.114 1291.5 506.914 1253.6 506.914 1251.2C506.914 1250.5 507.314 1250 507.714 1250C508.114 1250 509.814 1247.4 511.414 1244.3C513.114 1241.1 514.914 1238.1 515.414 1237.4C516.014 1236.8 517.614 1234.1 518.914 1231.4C520.314 1228.7 521.914 1226 522.414 1225.4C523.014 1224.8 524.614 1222.1 525.914 1219.4C527.314 1216.7 528.714 1214.4 529.214 1214.2C530.114 1213.7 530.114 1208.9 529.114 1207.3C526.714 1203.5 521.114 1204.2 508.914 1209.9C493.814 1216.9 473.414 1233.4 466.114 1244.3C463.514 1248.2 460.114 1249.2 458.014 1246.6C456.914 1245.2 457.614 1239 458.914 1239C460.114 1239 461.914 1234.1 461.914 1230.9C461.914 1225.7 457.614 1225.7 449.614 1231.1C445.214 1234 410.914 1269.6 400.914 1281.5C394.114 1289.7 390.914 1296.9 390.214 1305.9C388.914 1323.2 395.914 1330.3 417.414 1333.3C421.214 1333.8 433.914 1332.2 438.614 1330.5ZM1057.31 1279.8C1058.61 1277.7 1052.51 1265.6 1041.21 1247.8C1030.61 1231 1021.91 1220.2 1008.01 1206.5C1001.31 1199.9 992.514 1190.7 988.614 1186.2C977.114 1172.8 965.114 1163.8 944.014 1152.6C931.714 1146.1 927.414 1144.9 925.114 1147.2C922.514 1149.8 923.914 1153 931.214 1161.1C943.314 1174.7 949.814 1182.4 949.414 1182.8C949.214 1183 947.114 1182.1 944.814 1180.9C940.714 1178.9 931.014 1169.6 911.114 1148.7C906.614 1143.9 902.614 1140 902.214 1140C901.214 1140 902.814 1152.4 904.914 1160.6C907.314 1170 914.914 1187.7 920.814 1197.8C936.414 1224.5 964.614 1251.6 990.314 1264.5C1004.21 1271.4 1012.31 1274.1 1030.71 1278.1C1038.81 1279.8 1045.61 1281.4 1045.91 1281.6C1046.11 1281.9 1048.51 1282 1051.31 1281.8C1054.61 1281.6 1056.51 1280.9 1057.31 1279.8ZM123.614 1248.2C127.514 1243 130.614 1235.5 136.214 1218.5C139.214 1209.2 142.014 1200.4 142.414 1199C148.814 1175.1 150.114 1167.4 149.514 1157.8C148.914 1149.3 145.914 1139.3 142.714 1134.9C139.414 1130.5 136.014 1131 131.014 1136.6C128.714 1139.2 126.914 1141.9 126.914 1142.6C126.914 1143.4 126.514 1144 126.014 1144C124.014 1144 119.014 1157.8 117.914 1166.5C117.214 1171.5 115.914 1181.1 114.814 1188C112.514 1202.9 112.314 1208.1 113.314 1226.5C114.014 1237.8 114.614 1241.5 116.514 1245.8C117.714 1248.6 119.414 1251 120.214 1251C120.914 1251 122.514 1249.7 123.614 1248.2ZM31.4144 1226.4C50.6144 1212.8 70.7144 1194.2 83.1144 1178.4C90.0144 1169.7 98.9144 1156.2 98.9144 1154.5C98.9144 1153.7 99.3144 1153 99.8144 1152.8C101.314 1152.3 111.914 1132.7 111.914 1130.5C111.914 1127 109.114 1124 105.714 1124C100.514 1124 73.6144 1142.1 63.7144 1152.2C54.3144 1161.9 36.9144 1184.9 36.9144 1187.7C36.9144 1188.4 36.5144 1189 36.1144 1189C35.1144 1189 23.0144 1210 21.5144 1214.4C20.9144 1216.1 20.1144 1218 19.7144 1218.5C18.7144 1220.1 17.6144 1228.8 18.3144 1230.5C19.3144 1233.3 23.4144 1232 31.4144 1226.4ZM483.914 1182.5C492.914 1180.5 501.714 1176.7 502.614 1174.4C503.614 1171.8 499.814 1169.4 490.114 1166.5C485.314 1165.1 480.014 1163.2 478.214 1162.4C476.514 1161.6 474.014 1161 472.714 1161C471.414 1161 469.914 1160.6 469.414 1160.2C468.814 1159.7 464.814 1158.1 460.414 1156.6C450.714 1153.2 436.314 1145.6 435.514 1143.3C435.114 1142.4 435.414 1141.3 436.114 1140.8C438.714 1139.2 442.514 1140.1 451.814 1144.5C464.514 1150.4 475.714 1153.5 497.314 1157.1C517.314 1160.5 520.314 1160.5 520.714 1157.4C521.114 1154.5 518.614 1152.6 509.614 1149.1C499.014 1144.9 472.014 1136 469.814 1136C468.814 1136 467.714 1135.6 467.414 1135C467.114 1134.5 465.514 1134 463.914 1134C462.314 1134 460.714 1133.6 460.414 1133C460.114 1132.5 458.514 1132 456.914 1132C455.314 1132 453.814 1131.6 453.514 1131.2C453.214 1130.7 449.314 1129.6 444.714 1128.6C440.114 1127.6 434.514 1126.4 432.214 1125.9C429.914 1125.4 426.214 1125 424.014 1125C414.914 1125 399.314 1133.5 394.114 1141.4C386.814 1152.2 390.914 1167.5 403.014 1174.7C408.614 1178.1 424.314 1181.9 440.914 1183.9C451.314 1185.2 474.914 1184.4 483.914 1182.5ZM676.714 1169.6C677.814 1168.1 681.514 1147.7 683.514 1131.5C685.714 1113.6 685.714 1082.9 683.614 1077.8C682.014 1074 679.914 1073.1 677.114 1074.9C675.714 1075.7 672.914 1085 672.914 1088.8C672.914 1090.1 672.314 1091 671.414 1091C670.114 1091 669.914 1087.3 669.914 1063.6C669.914 1048.6 669.614 1034.8 669.314 1033.1C668.914 1031.4 667.314 1028.5 665.714 1026.7L662.714 1023.6L660.414 1026.2C658.714 1028.2 657.914 1030.7 657.414 1035.7C657.114 1039.4 656.414 1044.5 655.914 1047C651.014 1070.7 652.514 1119.7 658.614 1141C661.314 1150.6 668.914 1169.5 670.514 1170.6C672.214 1171.9 675.414 1171.4 676.714 1169.6ZM38.2144 1032.9C42.2144 1031.1 57.1144 1013.5 91.9144 969.5C110.214 946.4 131.114 920.6 138.314 912.2C145.514 903.8 152.314 894.9 153.514 892.6C156.614 886.3 157.314 880.3 155.414 877.4C151.914 872 145.314 876 136.714 888.8C122.414 910 113.314 920.5 80.9144 953.5C67.4144 967.3 53.3144 982.6 49.6144 987.5C42.7144 996.7 33.9144 1012.7 33.9144 1016C33.9144 1017.1 33.5144 1018.1 33.0144 1018.4C31.4144 1019.4 30.2144 1031 31.5144 1033.1C32.2144 1034.3 35.3144 1034.2 38.2144 1032.9ZM218.914 978.7C218.914 974.3 218.614 972.9 217.914 974C216.614 976 216.614 986.3 217.914 985.5C218.514 985.2 218.914 982.1 218.914 978.7ZM217.514 968.3C215.214 958.8 200.214 910.5 196.514 900.9C189.714 883 189.214 882 185.714 882C183.314 882 182.514 882.6 181.314 885.5C179.314 890.4 179.514 896 182.314 907.5C186.214 923.4 196.014 947.2 204.514 961.1C208.114 967.2 212.714 971 216.314 971C217.814 971 218.014 970.5 217.514 968.3ZM258.514 741.3C257.814 718.3 256.014 697.1 253.414 681.7C251.014 667.6 248.614 657 247.914 657C246.714 657 244.714 662.3 243.814 668C241.414 682.5 247.814 746.8 252.614 756.2C253.814 758.8 257.714 763 258.714 763C259.014 763 258.914 753.2 258.514 741.3ZM76.4144 732.7C87.5144 726.8 100.214 717.4 120.114 700.4C144.714 679.4 178.914 650.8 185.414 645.9C188.714 643.3 197.714 637.1 205.514 632.1C220.214 622.5 222.914 619.6 222.914 613.7C222.914 604.4 214.014 606.9 185.214 624.2C152.914 643.6 128.614 662.5 104.714 686.7C89.3144 702.3 72.3144 721.5 69.4144 726.5C66.9144 730.7 65.0144 738.5 66.5144 737.9C67.0144 737.7 71.5144 735.3 76.4144 732.7ZM873.614 709.7C876.414 707 873.514 702.8 861.014 691.6C836.414 669.5 783.214 629.6 767.914 621.9C765.414 620.7 762.514 618.9 761.414 618C758.414 615.5 745.014 608 730.414 600.8C719.314 595.3 713.314 592.6 701.414 588C700.314 587.6 697.714 586.5 695.714 585.6C693.714 584.7 690.714 583.7 689.014 583.4C687.314 583 685.614 582.3 685.314 581.9C685.014 581.4 683.714 581 682.314 581C681.014 581 679.114 580.6 678.114 580.1C674.514 578.3 658.114 575 652.214 574.9C645.314 574.7 640.914 576.7 640.914 579.9C640.914 583.4 647.014 593.8 652.814 600.1C657.414 605.2 661.914 608.5 674.014 615.7C707.514 635.6 751.514 660.3 772.414 670.8C798.714 684.2 798.614 684.1 797.114 687.5C794.914 692.3 790.114 691.1 767.214 680C756.014 674.5 741.714 667 735.614 663.3C729.414 659.5 723.314 655.9 721.914 655.3C720.514 654.6 718.514 653.5 717.414 652.8C708.014 646.9 703.414 644.3 689.614 637.1C676.714 630.3 673.314 629 671.014 629.5C666.114 630.6 665.314 632.3 667.214 638.3C672.314 654.4 704.214 679.3 731.114 688.3C738.814 690.9 744.314 691.9 787.414 698.6C810.414 702.1 858.514 710.7 860.414 711.5C862.714 712.5 872.114 711.2 873.614 709.7ZM395.814 605C398.214 603.7 400.114 598.9 400.314 593.7C400.414 587.5 398.014 549 396.814 538C395.414 525.9 394.114 519.9 389.014 502C383.714 484 379.014 473.1 377.614 475.6C375.814 478.8 376.314 537.5 378.214 555C380.214 572.6 385.214 598.7 387.414 603.1C389.014 606.2 392.314 606.9 395.814 605ZM347.614 496.2C349.114 495.2 351.514 485.6 353.014 474.5C354.114 465.8 353.714 451.2 352.014 441L351.214 436.5L348.614 442.1C344.314 451 341.914 464.5 341.914 479.8C341.914 495.4 343.114 499 347.614 496.2Z" fill="#DEB8A6"/>
</svg>
