<svg width="2229" height="5590" viewBox="0 0 2229 5590" fill="none" xmlns="http://www.w3.org/2000/svg">
  <path d="M1324.03 5574C1246.03 5551 1180.03 5518 1174.03 5499C1165.03 5471 1208.03 5282 1235.03 5228C1249.03 5200 1259.03 5177 1257.03 5175C1255.03 5174 1205.03 5158 1145.03 5139C1086.03 5121 1035.03 5100 1032.03 5093C1029.03 5086 1040.03 5059 1055.03 5033C1070.03 5006 1102.03 4948 1125.03 4903C1196.03 4766 1250.03 4699 1314.03 4671C1338.03 4660 1362.03 4643 1368.03 4632C1384.03 4602 1381.03 4257 1364.03 4065C1356.03 3977 1349.03 3884 1349.03 3858C1349.03 3773 1305.03 3781 1270.03 3872C1185.03 4094 1127.03 4203 1090.03 4208C1062.03 4212 1063.03 4201 1100.03 4028C1116.03 3949 1139.03 3838 1150.03 3780C1181.03 3616 1213.03 3531 1282.03 3431L1312.03 3387L1305.03 3256C1276.03 2668 1233.03 2183 1153.03 1545C1139.03 1435 1122.03 1294 1114.03 1232C1107.03 1170 1098.03 1116 1095.03 1113C1079.03 1097 1070.03 1138 1055.03 1300C1046.03 1396 1023.03 1608 1004.03 1770C965.03 2101 940.03 2364 909.03 2740C862.03 3314 832.03 3491 734.03 3791C698.03 3898 669.03 4003 669.03 4023C669.03 4043 682.03 4101 698.03 4152C752.03 4320 819.03 4574 819.03 4607C819.03 4650 789.03 4680 745.03 4680C715.03 4680 709.03 4685 688.03 4728C659.03 4786 629.03 4793 572.03 4757C551.03 4744 504.03 4716 466.03 4696C418.03 4669 387.03 4644 358.03 4605C324.03 4560 301.03 4543 216.03 4499C83.0296 4431 62.0296 4414 33.0296 4358C5.02964 4303 2.02964 4234 24.0296 4170C44.0296 4113 43.0296 4088 19.0296 4057C-9.97036 4020 -5.97036 3985 32.0296 3944C62.0296 3911 70.0296 3908 164.03 3895C297.03 3876 479.03 3876 552.03 3895C584.03 3903 614.03 3910 619.03 3910C634.03 3910 653.03 3866 697.03 3734C762.03 3538 800.03 3347 832.03 3043C845.03 2927 844.03 2920 828.03 2920C817.03 2920 795.03 2943 773.03 2977C732.03 3042 588.03 3219 540.03 3264C516.03 3287 506.03 3291 497.03 3282C488.03 3273 492.03 3248 513.03 3178C593.03 2909 668.03 2708 714.03 2638C729.03 2616 770.03 2579 808.03 2555C887.03 2504 874.03 2556 914.03 2140C928.03 1994 950.03 1783 964.03 1670C989.03 1457 1033.03 1029 1050.03 830C1055.03 767 1074.03 554 1091.03 358L1123.03 0H1150.03C1175.03 0 1177.03 3 1173.03 33C1171.03 50 1164.03 123 1159.03 195C1153.03 267 1141.03 386 1133.03 460C1122.03 550 1119.03 629 1123.03 695C1127.03 750 1134.03 867 1139.03 955C1144.03 1043 1160.03 1201 1174.03 1305C1188.03 1410 1213.03 1605 1229.03 1740C1262.03 2004 1273.03 2057 1323.03 2165C1380.03 2289 1536.03 2551 1597.03 2625C1632.03 2668 1640.03 2670 1705.03 2660C1775.03 2648 1848.03 2659 1996.03 2700C2112.03 2733 2119.03 2736 2119.03 2754C2119.03 2779 2094.03 2788 1951.03 2818C1873.03 2834 1804.03 2851 1798.03 2857C1791.03 2864 1803.03 2884 1837.03 2921C1891.03 2980 1894.03 2981 2034.03 2965C2100.03 2958 2107.03 2959 2167.03 2989C2239.03 3027 2242.03 3035 2205.03 3132C2193.03 3167 2179.03 3213 2175.03 3235C2171.03 3257 2159.03 3289 2149.03 3305C2140.03 3322 2124.03 3356 2114.03 3382C2088.03 3453 2067.03 3466 1975.03 3474C1855.03 3483 1859.03 3492 1859.03 3236V3025L1812.03 2971C1646.03 2781 1525.03 2616 1422.03 2438C1363.03 2335 1308.03 2251 1302.03 2250C1285.03 2250 1286.03 2261 1309.03 2539C1320.03 2668 1336.03 2889 1344.03 3029C1369.03 3436 1396.03 3731 1414.03 3780C1437.03 3845 1489.03 3922 1507.03 3918C1533.03 3913 1611.03 3808 1653.03 3723C1699.03 3629 1715.03 3610 1746.03 3610C1777.03 3610 1776.03 3635 1744.03 3717C1718.03 3780 1714.03 3798 1683.03 3983C1658.03 4136 1632.03 4149 1509.03 4069C1476.03 4048 1442.03 4030 1435.03 4030C1425.03 4030 1423.03 4075 1426.03 4258C1431.03 4563 1435.03 4610 1459.03 4610C1469.03 4610 1481.03 4606 1484.03 4600C1487.03 4595 1504.03 4590 1520.03 4590C1565.03 4590 1582.03 4638 1577.03 4757C1576.03 4808 1577.03 4850 1581.03 4850C1585.03 4850 1604.03 4830 1624.03 4806C1647.03 4778 1672.03 4759 1691.03 4755C1725.03 4747 1753.03 4769 1841.03 4874C1886.03 4927 1890.03 4937 1885.03 4969C1878.03 5020 1809.03 5081 1741.03 5099C1712.03 5106 1679.03 5120 1666.03 5130L1644.03 5149L1669.03 5167C1734.03 5213 1890.03 5344 1909.03 5367C1942.03 5410 1936.03 5453 1889.03 5493C1848.03 5528 1730.03 5580 1692.03 5580C1664.03 5580 1608.03 5532 1584.03 5486C1564.03 5450 1529.03 5437 1529.03 5465C1529.03 5486 1501.03 5540 1476.03 5568C1452.03 5594 1401.03 5596 1324.03 5574ZM1458.03 5518C1485.03 5490 1494.03 5442 1492.03 5349C1490.03 5267 1477.03 5220 1457.03 5221C1431.03 5223 1377.03 5299 1365.03 5352C1359.03 5380 1348.03 5405 1340.03 5408C1329.03 5412 1327.03 5397 1333.03 5321C1340.03 5242 1338.03 5229 1324.03 5224C1315.03 5220 1300.03 5225 1288.03 5236C1263.03 5259 1227.03 5376 1225.03 5443L1224.03 5495L1289.03 5517C1375.03 5546 1432.03 5547 1458.03 5518ZM1804.03 5479C1881.03 5442 1896.03 5415 1862.03 5378C1827.03 5339 1621.03 5180 1606.03 5180C1577.03 5180 1578.03 5199 1614.03 5269C1649.03 5340 1657.03 5370 1640.03 5370C1635.03 5370 1621.03 5357 1609.03 5340C1586.03 5308 1559.03 5300 1559.03 5325C1559.03 5343 1613.03 5452 1642.03 5494C1659.03 5518 1667.03 5522 1698.03 5517C1718.03 5515 1766.03 5497 1804.03 5479ZM1467.03 5148C1474.03 5141 1479.03 5117 1479.03 5094C1479.03 5042 1459.03 5023 1421.03 5036C1365.03 5056 1370.03 5160 1427.03 5160C1442.03 5160 1460.03 5155 1467.03 5148ZM1319.03 5105C1319.03 5096 1299.03 5075 1274.03 5058C1207.03 5011 1218.03 4984 1292.03 5015C1315.03 5025 1315.03 5000 1290.03 4952C1266.03 4905 1236.03 4877 1212.03 4882C1189.03 4886 1096.03 5061 1109.03 5074C1122.03 5087 1246.03 5119 1287.03 5119C1309.03 5120 1319.03 5115 1319.03 5105ZM1637.03 5091C1646.03 5086 1690.03 5065 1733.03 5046C1861.03 4987 1868.03 4961 1778.03 4871C1745.03 4837 1709.03 4810 1699.03 4810C1672.03 4810 1557.03 4961 1572.03 4977C1575.03 4980 1593.03 4973 1612.03 4961C1648.03 4939 1679.03 4933 1679.03 4949C1679.03 4954 1648.03 4987 1609.03 5023C1571.03 5059 1539.03 5093 1539.03 5100C1539.03 5114 1605.03 5107 1637.03 5091ZM1403.03 4970C1426.03 4962 1429.03 4955 1429.03 4913C1429.03 4851 1438.03 4820 1455.03 4820C1465.03 4820 1469.03 4841 1471.03 4898C1473.03 4958 1477.03 4975 1489.03 4975C1508.03 4975 1540.03 4800 1537.03 4715C1533.03 4639 1523.03 4636 1415.03 4685C1292.03 4740 1264.03 4756 1260.03 4776C1256.03 4799 1349.03 4980 1366.03 4980C1372.03 4980 1389.03 4976 1403.03 4970ZM647.03 4695C667.03 4651 661.03 4623 623.03 4586C590.03 4554 580.03 4550 530.03 4550C499.03 4549 458.03 4548 439.03 4547C408.03 4545 404.03 4548 401.03 4571C399.03 4585 404.03 4602 412.03 4608C438.03 4630 604.03 4719 620.03 4720C629.03 4720 641.03 4709 647.03 4695ZM773.03 4611C776.03 4607 772.03 4581 765.03 4554C758.03 4527 739.03 4460 725.03 4405C683.03 4250 668.03 4210 654.03 4210C638.03 4210 632.03 4249 625.03 4408L619.03 4520L668.03 4555C695.03 4575 720.03 4597 723.03 4605C729.03 4621 764.03 4625 773.03 4611ZM369.03 4491C369.03 4487 342.03 4466 310.03 4446C234.03 4399 194.03 4353 174.03 4288C166.03 4260 159.03 4233 159.03 4228C159.03 4209 114.03 4160 97.0296 4160C63.0296 4160 39.0296 4253 58.0296 4312C75.0296 4363 116.03 4396 226.03 4451C318.03 4497 369.03 4511 369.03 4491ZM546.03 4492C566.03 4479 577.03 4438 584.03 4337C591.03 4245 590.03 4240 572.03 4240C561.03 4240 547.03 4251 541.03 4265C535.03 4279 525.03 4290 519.03 4290C501.03 4290 509.03 4247 539.03 4175C556.03 4137 569.03 4104 569.03 4103C569.03 4101 558.03 4100 544.03 4100C526.03 4100 506.03 4118 463.03 4170C432.03 4209 404.03 4240 400.03 4240C364.03 4240 402.03 4167 474.03 4097C504.03 4068 529.03 4040 529.03 4037C529.03 4022 431.03 4031 379.03 4050C341.03 4063 311.03 4084 282.03 4115C211.03 4192 201.03 4276 255.03 4339C284.03 4374 388.03 4440 414.03 4440C423.03 4440 444.03 4454 459.03 4470C486.03 4499 521.03 4508 546.03 4492ZM203.03 4133C224.03 4092 289.03 4033 332.03 4015C353.03 4006 400.03 3995 437.03 3990C474.03 3984 522.03 3976 544.03 3972L584.03 3963L554.03 3949C532.03 3939 483.03 3936 374.03 3937C126.03 3940 51.0296 3957 49.0296 4007C49.0296 4020 169.03 4160 181.03 4160C185.03 4160 195.03 4148 203.03 4133ZM1177.03 3988C1234.03 3846 1304.03 3649 1315.03 3600C1334.03 3523 1333.03 3500 1310.03 3500C1297.03 3500 1283.03 3519 1262.03 3568C1220.03 3661 1213.03 3685 1180.03 3850C1164.03 3930 1147.03 4008 1143.03 4024C1132.03 4071 1154.03 4047 1177.03 3988ZM1629.03 4014C1635.03 4000 1642.03 3971 1645.03 3949C1650.03 3917 1649.03 3910 1635.03 3910C1618.03 3910 1560.03 3967 1559.03 3984C1559.03 3996 1600.03 4040 1611.03 4040C1616.03 4040 1624.03 4028 1629.03 4014ZM1463.03 3954C1440.03 3926 1423.03 3913 1420.03 3921C1417.03 3932 1480.03 4000 1495.03 4000C1498.03 4000 1483.03 3979 1463.03 3954ZM1963.03 3409C1976.03 3397 1940.03 3270 1924.03 3270C1909.03 3270 1894.03 3385 1905.03 3413C1911.03 3431 1942.03 3429 1963.03 3409ZM2086.03 3335C2144.03 3228 2141.03 3201 2066.03 3148C2027.03 3120 2006.03 3130 2021.03 3170C2034.03 3208 2028.03 3216 2000.03 3198C1963.03 3175 1957.03 3199 1979.03 3277C2019.03 3421 2035.03 3430 2086.03 3335ZM2168.03 3119C2184.03 3072 2183.03 3067 2137.03 3037C2108.03 3019 2082.03 3010 2053.03 3010C2009.03 3010 1977.03 3032 1996.03 3051C2014.03 3069 2134.03 3148 2146.03 3149C2152.03 3149 2162.03 3136 2168.03 3119ZM640.03 3073C730.03 2980 790.03 2865 830.03 2711C854.03 2619 854.03 2610 830.03 2610C803.03 2610 741.03 2684 709.03 2754C686.03 2805 579.03 3103 579.03 3116C579.03 3129 600.03 3114 640.03 3073ZM1912.03 2769C1960.03 2756 1949.03 2737 1884.03 2721C1763.03 2690 1641.03 2726 1732.03 2765C1770.03 2782 1859.03 2784 1912.03 2769Z" fill="#e5b6a3"/>
</svg>
