<svg width="2972" height="1653" viewBox="0 0 2972 1653" fill="none" xmlns="http://www.w3.org/2000/svg">
  <path d="M1038.01 1651.71C1029.51 1650.21 1023.21 1647.01 1018.51 1641.81C982.612 1601.91 1073.11 1493.11 1276.61 1331.41C1288.21 1322.11 1297.81 1314.11 1297.81 1313.51C1297.81 1311.61 1288.91 1300.21 1281.71 1292.91C1267.31 1278.31 1243.01 1262.31 1210.41 1245.81C1179.91 1230.41 1145.81 1215.61 1069.81 1184.81C1047.01 1175.51 1025.21 1166.61 1021.41 1164.81C1004.41 1157.21 987.112 1144.31 978.312 1132.71C972.612 1125.01 966.512 1112.71 964.112 1103.81C961.712 1094.71 961.712 1075.01 964.212 1064.31C971.712 1031.61 994.612 995.714 1033.31 955.914C1119.91 866.714 1269.31 781.914 1362.81 768.714C1375.11 767.014 1395.81 767.214 1404.81 769.214C1426.11 773.714 1440.31 786.914 1445.41 806.814C1447.71 816.014 1447.11 837.314 1444.31 841.014C1440.31 846.414 1432.21 847.014 1427.71 842.214C1425.51 839.814 1425.31 838.714 1424.81 825.014C1424.21 809.014 1423.11 805.414 1417.21 799.414C1409.01 791.314 1392.61 787.814 1371.71 789.814C1300.51 796.714 1182.71 856.814 1091.11 932.914C1072.81 948.114 1036.11 984.614 1024.41 999.314C1006.21 1022.01 992.712 1045.71 987.212 1064.31C983.512 1076.81 983.312 1093.11 986.612 1103.01C992.112 1119.01 1008.01 1134.21 1029.11 1143.81C1032.51 1145.31 1056.91 1155.41 1083.31 1166.11C1159.81 1197.21 1184.21 1207.71 1213.81 1222.41C1263.31 1246.81 1295.81 1270.61 1311.61 1294.01C1313.41 1296.61 1315.31 1299.01 1315.81 1299.31C1316.31 1299.61 1324.31 1294.11 1333.51 1287.01C1397.91 1237.71 1471.41 1184.51 1479.01 1181.61C1485.31 1179.21 1488.91 1179.91 1492.41 1184.11C1494.71 1186.91 1495.01 1187.81 1494.51 1192.81C1494.21 1195.81 1492.41 1205.51 1490.41 1214.31C1480.61 1257.91 1479.81 1289.71 1488.11 1299.41C1494.51 1306.91 1512.71 1298.91 1536.91 1278.11C1560.31 1257.91 1585.51 1229.01 1604.81 1200.31L1611.81 1189.81L1619.71 1155.61C1638.11 1076.11 1654.31 1009.61 1667.71 958.114C1692.31 863.714 1715.21 805.514 1735.81 784.914C1741.81 778.914 1746.21 776.814 1752.71 776.814C1770.01 776.814 1772.81 802.314 1760.21 845.314C1747.51 888.514 1719.61 946.614 1683.31 1005.81L1675.01 1019.31L1667.31 1050.81C1628.11 1211.91 1585.31 1412.81 1568.31 1515.71C1566.41 1527.51 1564.91 1537.21 1565.01 1537.31C1573.61 1542.71 1575.01 1546.41 1571.81 1555.81C1565.21 1575.51 1558.61 1582.61 1549.01 1580.21C1537.71 1577.31 1537.61 1563.11 1548.41 1499.81C1553.61 1469.31 1560.91 1430.41 1570.41 1383.31C1578.51 1343.21 1596.91 1255.91 1598.81 1249.11C1599.21 1247.31 1599.31 1245.81 1599.01 1245.91C1598.61 1245.91 1594.91 1250.01 1590.81 1254.91C1582.31 1265.11 1559.41 1288.11 1549.81 1296.11C1513.41 1326.51 1483.51 1332.31 1469.31 1311.81C1459.21 1297.21 1457.51 1271.01 1464.31 1231.41C1465.71 1223.21 1466.71 1216.41 1466.51 1216.31C1465.81 1215.71 1338.71 1310.11 1328.91 1318.51L1325.51 1321.41L1327.41 1328.91C1330.21 1339.71 1330.01 1360.71 1327.01 1374.81C1313.41 1438.51 1279.31 1498.21 1225.81 1551.91C1198.71 1579.11 1174.11 1598.81 1144.11 1617.11C1103.41 1642.01 1060.91 1655.81 1038.01 1651.71ZM1068.31 1627.31C1119.11 1614.51 1191.01 1563.01 1236.81 1506.81C1260.81 1477.41 1281.21 1443.21 1291.51 1415.31C1300.21 1391.61 1305.21 1373.41 1307.01 1358.11C1308.01 1348.81 1307.51 1336.81 1306.01 1336.81C1304.91 1336.81 1265.21 1368.71 1236.31 1392.81C1185.81 1434.91 1160.11 1458.31 1121.81 1496.71C1078.91 1539.81 1055.41 1568.41 1041.41 1594.91C1030.51 1615.31 1029.91 1627.21 1039.51 1629.41C1041.11 1629.71 1042.81 1630.11 1043.31 1630.41C1045.51 1631.21 1059.81 1629.51 1068.31 1627.31ZM1703.31 924.914C1717.61 896.414 1731.51 862.714 1738.11 840.814C1741.91 828.414 1746.11 809.814 1745.41 809.114C1744.81 808.514 1738.71 819.714 1732.51 832.914C1722.51 854.014 1710.81 886.614 1701.71 918.314C1699.51 926.014 1697.51 933.114 1697.21 934.114C1695.91 938.414 1698.21 934.914 1703.31 924.914Z" fill="#EFD5BB"/>
  <path d="M1682.91 1395.31C1673.81 1392.41 1667.41 1384.41 1663.91 1371.61C1661.51 1362.81 1661.51 1337.71 1664.01 1320.21C1669.01 1284.01 1680.71 1237.31 1699.61 1178.51C1705.71 1159.91 1707.01 1156.51 1709.71 1154.31C1714.01 1150.71 1720.31 1150.71 1723.91 1154.31C1728.91 1159.21 1728.61 1161.71 1720.31 1187.61C1703.81 1238.51 1692.31 1283.01 1687.21 1315.71C1682.31 1346.41 1683.61 1371.81 1690.21 1374.41C1693.41 1375.61 1704.61 1368.61 1714.21 1359.41C1750.11 1325.11 1787.21 1256.41 1801.51 1197.91C1803.11 1191.51 1804.71 1183.71 1805.11 1180.71C1806.11 1173.21 1808.11 1169.81 1812.31 1168.01C1816.81 1166.21 1821.51 1167.01 1824.41 1170.01C1825.61 1171.21 1827.61 1176.21 1828.91 1181.21C1834.01 1199.81 1840.01 1211.11 1849.61 1220.01C1869.71 1238.61 1899.01 1238.11 1927.31 1218.51C1936.31 1212.31 1953.11 1196.11 1955.51 1191.51C1957.51 1187.31 1963.41 1184.31 1967.61 1185.21C1971.51 1186.01 1975.41 1190.21 1976.11 1194.21C1976.51 1196.01 1975.31 1203.21 1973.11 1212.11C1963.11 1253.21 1960.81 1289.41 1967.21 1301.91C1974.71 1316.41 2004.61 1299.21 2043.61 1258.21C2048.81 1252.71 2057.11 1243.41 2061.91 1237.51L2070.61 1226.81L2074.71 1213.01C2092.41 1152.41 2123.91 1103.81 2150.41 1096.11C2164.11 1092.11 2174.61 1100.31 2174.61 1115.01C2174.61 1132.51 2159.81 1156.21 2129.61 1187.21C2120.41 1196.61 2111.81 1206.21 2110.41 1208.71C2108.91 1211.21 2104.11 1218.41 2099.61 1224.71L2091.31 1236.21L2089.01 1247.61C2082.71 1278.31 2084.11 1302.11 2092.81 1316.71C2100.91 1330.21 2116.11 1333.11 2133.51 1324.61C2151.81 1315.61 2184.31 1285.91 2212.01 1252.81C2220.71 1242.41 2212.01 1252.81 2223.81 1238.31C2235.31 1225.81 2223.81 1238.31 2235.31 1225.81C2243.31 1216.31 2247.31 1211.81 2251.81 1207.31C2261.15 1197.98 2252.81 1206.31 2266.31 1192.81C2275.31 1186.31 2266.31 1192.81 2272.81 1187.81C2303.51 1164.21 2362.31 1134.01 2405.11 1118.51C2442.71 1105.01 2490.91 1093.91 2607.11 1072.31C2693.31 1056.21 2715.71 1051.61 2748.61 1043.11C2789.41 1032.51 2815.71 1021.31 2844.51 1002.21C2872.81 983.314 2892.01 964.114 2922.91 923.215C2944.51 894.815 2956.91 883.015 2969.41 879.215C2971.71 878.515 2971.71 878.615 2970.31 880.915C2969.51 882.115 2968.51 884.315 2968.11 885.715C2967.71 887.115 2963.71 891.815 2959.31 896.215C2949.31 906.214 2939.91 917.814 2925.61 938.214C2910.31 959.914 2901.61 970.614 2889.71 982.514C2850.11 1022.11 2798.91 1048.01 2722.91 1067.11C2696.11 1073.81 2671.11 1079.01 2608.51 1090.71C2555.21 1100.71 2528.91 1106.21 2498.31 1113.81C2415.91 1134.21 2354.81 1160.91 2291.81 1199.31C2287.33 1202.05 2287.31 1202.31 2280.81 1208.81C2276.31 1213.31 2273.81 1214.81 2269.31 1219.31C2237.94 1250.68 2223.91 1274.41 2199.61 1298.81C2179.31 1319.11 2169.21 1327.81 2154.21 1337.81C2115.31 1363.51 2078.11 1352.11 2066.71 1310.81C2064.11 1301.41 2062.21 1283.91 2063.01 1276.51C2063.31 1273.31 2063.41 1270.71 2063.31 1270.71C2063.11 1270.71 2057.31 1276.21 2050.51 1283.01C2020.11 1312.91 1996.51 1327.41 1976.41 1328.51C1968.81 1328.91 1967.21 1328.61 1962.41 1326.51C1947.91 1319.81 1941.61 1304.71 1941.61 1276.71C1941.61 1264.01 1942.71 1251.91 1945.21 1237.01L1945.91 1232.71L1939.01 1237.41C1911.11 1256.21 1877.61 1260.81 1852.81 1249.21C1840.71 1243.51 1828.31 1232.51 1822.01 1221.81C1821.01 1220.11 1819.91 1218.71 1819.51 1218.71C1819.11 1218.71 1818.31 1220.81 1817.71 1223.31C1814.31 1236.71 1799.01 1273.61 1789.41 1291.71C1758.61 1349.51 1724.31 1388.31 1698.11 1395.31C1692.01 1397.01 1688.41 1397.01 1682.91 1395.31ZM2135.71 1147.01C2142.31 1138.31 2152.31 1121.11 2151.41 1120.21C2150.41 1119.21 2142.31 1127.31 2136.31 1135.01C2128.61 1144.91 2123.11 1153.81 2118.21 1163.71L2114.51 1171.21L2121.61 1163.71C2125.51 1159.61 2131.91 1152.11 2135.71 1147.01Z" fill="#EFD5BB"/>
  <path d="M1485.11 1139.81C1478.61 1137.21 1480.01 1127.71 1488.01 1120.21C1498.01 1110.71 1510.71 1110.81 1513.81 1120.31C1516.21 1127.61 1512.31 1135.31 1504.31 1138.91C1500.01 1140.91 1489.11 1141.41 1485.11 1139.81Z" fill="#EFD5BB"/>
  <path d="M1963.11 1139.61C1959.71 1138.01 1958.41 1133.71 1959.81 1129.21C1961.81 1123.31 1969.51 1116.21 1976.21 1114.31C1986.71 1111.21 1992.31 1114.91 1992.31 1124.61C1992.31 1131.71 1989.71 1135.71 1983.31 1138.71C1978.41 1141.01 1967.11 1141.51 1963.11 1139.61Z" fill="#EFD5BB"/>
  <path d="M732.213 882.715C724.213 880.215 716.913 873.815 713.813 866.615C710.113 858.315 710.513 846.215 714.713 833.815C733.213 779.315 822.113 687.415 972.013 567.915L998.713 546.615L996.513 542.715C993.113 536.715 981.113 523.615 972.513 516.515C940.913 490.315 897.813 469.215 770.313 417.315C720.713 397.115 711.113 392.715 700.313 385.015C686.313 375.115 678.413 366.615 671.513 353.715C665.613 343.015 663.613 335.015 662.913 319.815L662.313 306.315L657.313 310.815C629.313 336.315 591.613 357.015 545.113 372.415C508.513 384.415 480.413 390.915 392.813 407.415C300.313 424.815 258.113 434.815 209.513 450.915C138.813 474.315 78.4128 505.515 21.9128 548.015C10.3128 556.715 6.81279 558.815 4.21279 558.815C1.41279 558.815 0.712789 558.415 0.212789 556.115C-0.187211 554.715 0.0127891 552.815 0.512789 551.915C1.01279 551.015 8.01279 544.315 15.9128 536.915C50.9128 504.215 82.9128 482.715 132.013 458.815C157.313 446.515 170.413 441.015 188.613 434.715C228.113 421.315 272.713 411.115 376.813 391.715C489.513 370.815 521.613 363.815 556.313 352.315C590.013 341.215 618.313 325.815 644.313 304.315C660.413 290.915 669.213 281.415 672.313 273.815C688.213 235.215 731.713 184.715 788.313 139.215C876.713 68.1147 988.913 11.9147 1063.61 1.31469C1078.11 -0.785315 1098.81 -0.285315 1108.31 2.21469C1134.91 9.41469 1148.91 29.9147 1147.51 59.5147C1147.01 70.5147 1145.41 74.8147 1141.11 76.7147C1137.71 78.3147 1132.61 78.1147 1130.01 76.2147C1126.01 73.4147 1125.41 70.9147 1125.31 57.3147C1125.21 42.6147 1123.91 38.0147 1117.71 31.9147C1084.11 -1.78531 942.613 50.8147 821.013 142.115C787.213 167.515 744.913 206.915 725.713 230.815C707.713 253.315 695.213 274.615 688.713 294.015C684.613 306.115 683.513 322.915 686.313 332.415C691.313 349.915 704.313 363.515 726.813 374.815C730.413 376.615 751.513 385.515 773.813 394.515C885.713 439.915 913.213 452.415 951.513 475.115C982.413 493.415 1000.51 509.415 1016.41 532.615C1016.51 532.815 1020.61 529.915 1025.51 526.115C1049.61 507.315 1110.01 462.515 1148.71 434.615L1172.01 417.815L1177.11 409.315C1195.61 378.215 1220.11 361.915 1242.11 365.815C1251.71 367.615 1259.71 371.915 1268.61 380.315C1273.01 384.415 1277.11 389.115 1277.81 390.815C1280.71 397.915 1275.31 405.815 1267.41 405.815C1264.31 405.815 1262.71 404.815 1256.41 398.915C1247.11 390.315 1242.11 387.815 1234.21 387.815C1226.71 387.815 1220.81 391.015 1212.01 399.915C1195.21 416.815 1178.91 450.615 1171.41 483.915C1168.61 496.415 1166.91 512.815 1168.41 512.815C1169.81 512.815 1177.91 504.215 1189.81 490.315C1198.31 480.415 1217.21 455.715 1239.01 426.015C1243.91 419.415 1248.31 417.115 1253.41 418.415C1260.21 420.115 1260.91 422.115 1262.91 446.015C1267.51 499.715 1276.11 529.315 1289.71 538.515C1294.31 541.615 1298.31 541.415 1305.81 537.615C1313.91 533.615 1327.51 520.215 1338.21 505.815C1346.11 495.215 1361.81 470.615 1361.81 468.915C1361.81 467.915 1383.11 393.215 1387.41 379.215C1389.51 372.015 1390.51 370.415 1393.11 368.715C1399.51 364.815 1406.71 366.915 1409.41 373.415C1411.11 377.415 1411.21 376.815 1404.21 400.915C1401.21 411.215 1398.81 420.315 1398.81 421.215C1398.81 422.115 1399.51 423.115 1400.31 423.515C1402.41 424.215 1404.81 429.115 1404.81 432.515L1404.91 435.315L1407.11 432.315C1419.51 415.415 1434.61 406.915 1447.31 409.715C1461.61 412.915 1472.01 428.615 1482.31 462.915C1492.11 494.815 1501.21 509.815 1511.11 509.815C1513.21 509.815 1515.91 509.315 1517.11 508.715C1529.51 502.315 1550.01 477.315 1555.21 462.315C1559.61 449.615 1569.31 430.215 1577.41 418.115C1605.71 375.515 1646.11 358.615 1666.21 380.815C1670.11 385.115 1673.41 391.815 1674.71 397.715L1675.41 401.215L1677.71 397.515C1679.31 394.915 1682.11 384.215 1686.91 362.515C1715.91 231.715 1750.21 123.715 1774.51 86.8147C1785.41 70.3147 1795.71 65.7147 1804.11 73.6147C1809.71 78.9147 1811.01 89.2147 1808.21 107.715C1805.11 129.015 1800.71 144.915 1782.71 200.315C1756.61 280.415 1738.91 325.315 1712.21 379.315L1700.91 402.315L1693.91 437.315C1670.31 555.015 1646.81 705.615 1643.21 762.115L1642.51 772.815H1646.71C1650.01 772.815 1651.61 773.415 1653.81 775.615C1658.31 780.115 1658.61 784.715 1655.01 792.115C1651.41 799.315 1645.81 806.215 1641.71 808.315C1640.21 809.115 1637.31 809.815 1635.31 809.815C1617.51 809.815 1616.11 786.715 1628.41 692.815C1634.81 644.115 1648.71 557.115 1660.31 494.115C1663.31 477.815 1665.71 464.315 1665.51 464.215C1665.41 464.015 1663.31 467.215 1660.81 471.115C1652.91 484.115 1630.71 517.115 1623.71 526.415C1605.21 551.015 1584.71 563.815 1570.11 559.915C1558.41 556.715 1549.11 543.015 1547.21 526.115C1546.91 523.515 1546.51 519.815 1546.21 518.015L1545.71 514.715L1540.51 519.315C1522.21 535.315 1501.71 536.415 1487.41 522.115C1477.51 512.215 1471.71 500.715 1462.21 471.715C1458.51 460.515 1453.91 448.015 1452.01 444.015C1448.81 437.415 1443.21 430.815 1440.81 430.815C1440.41 430.815 1438.01 432.315 1435.61 434.115C1420.51 445.615 1396.21 490.415 1366.91 560.815C1359.51 578.415 1357.01 581.015 1348.21 579.415C1342.41 578.315 1340.51 574.215 1341.21 564.315C1341.51 559.915 1342.81 550.815 1344.11 544.115L1346.41 531.915L1337.61 540.315C1327.81 549.915 1316.31 557.815 1308.51 560.515C1305.21 561.615 1300.41 562.315 1295.31 562.315C1288.71 562.315 1286.31 561.815 1281.51 559.615C1262.61 550.715 1249.71 521.315 1243.41 473.015C1242.61 466.715 1241.81 461.515 1241.61 461.315C1241.41 461.115 1237.01 466.615 1231.81 473.515C1210.61 501.615 1187.51 527.515 1179.31 532.315C1165.51 540.315 1153.81 537.115 1148.71 524.015C1144.41 513.015 1146.21 489.015 1153.21 465.115L1155.61 456.815L1150.41 460.515C1096.51 499.615 1026.21 552.815 1026.51 554.415C1026.61 554.915 1027.41 559.115 1028.41 563.815C1031.91 581.515 1029.01 607.215 1020.31 634.815C998.413 703.815 950.813 769.715 885.813 821.015C827.913 866.615 763.313 892.615 732.213 882.715ZM768.613 859.915C809.313 849.315 864.013 814.715 907.213 772.015C958.113 721.715 990.013 668.015 1004.51 607.915C1007.11 597.115 1008.71 576.615 1007.41 571.415L1006.71 568.715L999.013 574.715C994.813 578.015 981.113 588.915 968.713 599.015C837.113 705.515 751.013 795.215 735.413 842.015C731.413 853.915 732.313 859.215 738.813 861.615C743.713 863.315 758.513 862.515 768.613 859.915ZM1583.01 536.215C1587.81 533.715 1597.71 523.715 1605.31 513.715C1617.91 496.915 1659.81 432.015 1659.81 429.215C1659.81 428.915 1658.61 427.715 1657.11 426.415C1654.51 424.115 1654.31 423.515 1653.81 412.715C1653.11 398.815 1651.71 395.415 1645.81 393.715C1642.41 392.715 1640.91 392.715 1636.41 394.115C1626.21 397.415 1613.21 407.715 1603.11 420.515C1599.41 425.215 1599.11 426.115 1599.51 430.215C1600.11 435.315 1598.21 439.115 1581.41 466.215C1571.61 482.215 1569.91 488.015 1569.11 508.815C1568.61 520.715 1568.91 524.515 1570.21 529.115C1573.01 538.615 1575.51 540.015 1583.01 536.215ZM1738.81 259.815C1748.31 233.815 1772.01 161.615 1777.21 142.915C1785.81 112.015 1785.31 111.015 1774.61 138.115C1761.31 171.715 1749.11 209.315 1735.41 259.215C1726.21 292.715 1726.81 292.815 1738.81 259.815Z" fill="#EFD5BB"/>
  <path d="M1976.31 651.415C1969.61 648.515 1964.51 641.015 1961.71 629.815C1959.61 621.515 1960.11 597.415 1962.71 579.815C1968.11 544.015 1981.81 489.115 1999.21 433.815C2001.71 425.915 2003.61 419.315 2003.51 419.215C2003.41 419.115 1999.01 421.715 1993.81 425.015C1980.91 433.115 1968.51 439.315 1957.51 443.015C1949.61 445.715 1946.81 446.115 1937.81 446.215C1932.01 446.315 1926.21 446.015 1924.81 445.615C1922.51 445.015 1921.61 445.915 1914.81 455.115C1872.71 512.115 1828.31 556.415 1798.31 571.315C1787.01 576.815 1778.91 578.915 1768.31 578.915C1742.91 578.915 1725.11 561.215 1719.31 530.315C1717.01 518.315 1717.71 491.015 1720.61 475.815C1734.11 405.915 1767.81 341.415 1798.81 326.015C1806.11 322.415 1817.11 322.115 1821.51 325.415C1835.31 335.715 1830.51 358.215 1808.11 387.915C1798.91 400.115 1777.91 422.015 1762.51 435.315L1750.91 445.215L1748.41 454.315C1743.11 473.315 1740.71 487.615 1740.11 504.315C1739.51 522.015 1740.71 530.615 1745.11 540.215C1750.61 552.215 1759.01 557.415 1771.81 556.615C1783.91 555.815 1793.11 550.915 1813.81 533.915C1837.31 514.715 1864.21 485.115 1893.61 446.115L1902.91 433.915L1898.41 427.815C1882.61 406.415 1884.81 376.115 1904.61 342.815C1914.41 326.115 1929.31 309.015 1941.61 300.115C1965.11 283.115 1984.01 292.915 1979.91 320.015C1977.01 339.215 1962.31 373.215 1939.81 412.715L1932.81 425.115L1939.81 424.415C1952.21 423.315 1964.31 417.715 1989.01 401.715C1996.81 396.615 2005.51 391.515 2008.21 390.215C2020.91 384.315 2030.81 390.015 2030.81 403.215C2030.81 405.915 2027.71 417.515 2022.71 433.415C1995.71 520.115 1982.71 577.315 1982.41 610.815C1982.21 631.915 1984.41 634.615 1995.41 626.515C2023.31 605.815 2070.41 536.315 2111.61 454.815C2120.11 438.015 2127.71 423.515 2128.61 422.515C2129.41 421.615 2131.81 420.315 2133.81 419.715C2141.01 417.515 2147.31 423.115 2147.11 431.315C2146.91 437.215 2114.91 498.615 2092.31 536.415C2065.91 580.515 2038.61 617.215 2019.21 634.715C2002.61 649.615 1986.61 655.915 1976.31 651.415ZM1924.31 394.315C1935.31 374.415 1944.91 354.615 1950.71 340.115C1954.81 329.715 1958.11 318.315 1957.61 316.615C1957.01 315.015 1946.21 324.415 1939.11 332.715C1926.71 347.215 1917.41 363.415 1912.71 378.815C1909.81 388.315 1909.41 402.315 1912.01 408.115C1912.91 410.115 1913.91 411.815 1914.21 411.815C1914.51 411.815 1919.01 403.915 1924.31 394.315ZM1777.81 389.615C1782.31 384.515 1788.41 377.115 1791.41 373.115C1797.51 365.015 1806.41 349.115 1805.41 348.015C1804.21 346.915 1790.61 362.015 1784.51 371.015C1778.91 379.315 1768.21 398.815 1769.11 398.815C1769.41 398.815 1773.31 394.715 1777.81 389.615Z" fill="#EFD5BB"/>
  <path d="M654.113 1429.81C649.513 1427.91 635.313 1407.11 626.713 1389.51C624.313 1384.71 621.913 1381.01 621.313 1381.21C597.713 1391.81 577.513 1398.71 559.313 1402.31C523.113 1409.61 499.313 1404.81 491.313 1388.41C488.813 1383.31 488.613 1382.01 489.013 1374.51C489.613 1364.41 493.113 1355.41 501.913 1341.81C511.513 1327.01 523.013 1313.71 551.213 1284.91C565.613 1270.31 581.013 1254.11 585.613 1249.11L593.813 1239.81V1227.61C593.813 1202.21 598.113 1167.41 603.313 1150.81C613.113 1119.71 634.313 1097.91 652.813 1100.11C666.913 1101.81 674.813 1112.41 674.813 1129.41C674.813 1155.61 657.013 1191.81 622.413 1235.71L613.513 1247.01L614.613 1263.21C616.713 1291.41 621.213 1316.71 628.513 1340.81C630.413 1347.11 632.113 1352.51 632.313 1352.71C632.913 1353.21 640.413 1348.61 649.613 1342.11C665.213 1330.91 682.413 1313.51 687.213 1304.01L688.913 1300.61L686.113 1300.81C680.813 1301.21 679.613 1300.81 676.713 1297.91C673.413 1294.61 673.013 1291.21 675.413 1286.71C677.213 1283.11 681.513 1281.11 689.213 1280.21C694.013 1279.61 695.513 1279.91 700.213 1282.21C716.113 1290.01 711.613 1309.81 688.213 1334.71C676.813 1346.81 662.413 1358.01 642.513 1370.21L639.713 1371.91L645.313 1382.61C650.513 1392.31 656.213 1401.51 664.713 1413.71C668.213 1418.71 668.613 1422.21 666.113 1425.81C662.713 1430.71 659.213 1431.91 654.113 1429.81ZM550.013 1384.21C567.113 1381.11 591.613 1373.21 607.513 1365.71L614.713 1362.31L611.213 1351.81C605.013 1332.91 599.213 1306.11 596.913 1285.31C594.813 1266.51 598.313 1265.31 569.913 1294.11C540.913 1323.61 534.213 1330.91 524.313 1343.91C511.613 1360.71 506.313 1374.21 509.813 1380.81C510.713 1382.41 515.813 1384.81 521.313 1386.21C524.613 1387.01 541.213 1385.91 550.013 1384.21ZM627.313 1195.71C637.513 1180.41 646.513 1163.41 650.813 1151.31C654.713 1140.51 656.113 1124.81 653.513 1121.41C649.713 1116.41 636.713 1125.91 629.513 1139.01C622.313 1152.01 618.013 1168.91 615.913 1192.31C615.313 1198.91 614.513 1206.61 614.313 1209.31L613.813 1214.31L616.413 1211.31C617.813 1209.71 622.713 1202.61 627.313 1195.71Z" fill="#DEB8A6"/>
</svg>
